HIERARCHY
ROOT simHips
{
  OFFSET 0.340842 90.3837 0.263031
  CHANNELS 6 Xposition Yposition Zposition Zrotation Xrotation Yrotation
  JOINT simSpine
  {
    OFFSET -0.000355721 21.3001 -0.016921
    CHANNELS 3 Zrotation Xrotation Yrotation
    JOINT simLeftArm
    {
      OFFSET 13.5181 21.3012 0
      CHANNELS 3 Zrotation Xrotation Yrotation
      JOINT simLeftForeArm
      {
        OFFSET 24.5783 0 0
        CHANNELS 3 Zrotation Xrotation Yrotation
        JOINT simLeftHand
        {
          OFFSET 24.5783 0 0
          CHANNELS 3 Zrotation Xrotation Yrotation
          End Site
          {
            OFFSET 7.32568 1.52588e-05 0.0169305
          }
        }
      }
    }
    JOINT simHead
    {
      OFFSET 0 27.4458 -0.00489235
      CHANNELS 3 Zrotation Xrotation Yrotation
      End Site
      {
        OFFSET 0 0 0
      }
    }
    JOINT simRightArm
    {
      OFFSET -13.5174 21.3012 0
      CHANNELS 3 Zrotation Xrotation Yrotation
      JOINT simRightForeArm
      {
        OFFSET -24.5783 0 0
        CHANNELS 3 Zrotation Xrotation Yrotation
        JOINT simRightHand
        {
          OFFSET -24.5783 0 0
          CHANNELS 3 Zrotation Xrotation Yrotation
          End Site
          {
            OFFSET -7.32568 1.52588e-05 0.0169305
          }
        }
      }
    }
  }
  JOINT simRightUpLeg
  {
    OFFSET -8.44614 -9.41038 0.835684
    CHANNELS 3 Zrotation Xrotation Yrotation
    JOINT simRightLeg
    {
      OFFSET 0 -40.9639 0
      CHANNELS 3 Zrotation Xrotation Yrotation
      JOINT simRightFoot
      {
        OFFSET 0 -40.9639 0
        CHANNELS 3 Zrotation Xrotation Yrotation
        End Site
        {
          OFFSET 0.50614 -9.67405 14.6709
        }
      }
    }
  }
  JOINT simLeftUpLeg
  {
    OFFSET 8.44614 -9.41038 0.835684
    CHANNELS 3 Zrotation Xrotation Yrotation
    JOINT simLeftLeg
    {
      OFFSET 0 -40.9639 0
      CHANNELS 3 Zrotation Xrotation Yrotation
      JOINT simLeftFoot
      {
        OFFSET 0 -40.9639 0
        CHANNELS 3 Zrotation Xrotation Yrotation
        End Site
        {
          OFFSET -0.50614 -9.67405 14.6709
        }
      }
    }
  }
}
MOTION
Frames:	19
Frame Time:	0.0333333
0.340842 90.3837 0.263031 1.62885 7.87099 -35.6881 4.76914 4.44546 3.97294 -54.7843 -17.6824 -32.9515 0.00280522 -1.6923e-05 -106.097 4.8481 14.7197 0.169434 -6.2563 4.39804 26.3289 56.4119 22.8979 57.835 7.50909e-05 -1.12844e-05 111.701 0.390107 2.31278 10.5087 -17.9631 -13.3649 -16.9324 -4.00608 44.2572 -4.41475 23.0188 -13.9024 2.1084 29.3742 -40.1073 25.034 -3.28524 44.5094 -2.70037 -8.40077 -6.30155 -0.448659 
0.096908 90.5206 0.423314 1.92296 8.23116 -34.8303 4.59949 4.35658 3.79343 -54.3278 -12.5245 -31.1603 0.0028057 -1.51666e-05 -104.388 9.9983 15.256 -0.726217 -6.43364 3.87142 25.746 55.769 23.2493 56.7274 7.48305e-05 -1.06067e-05 110.338 -0.483039 1.77488 9.96469 -17.8371 -13.3094 -17.0599 -3.42734 44.1211 -5.62505 21.9776 -14.3328 1.23052 28.9958 -40.9285 24.8365 -3.39926 44.4563 -1.91885 -7.82385 -5.35167 -0.0342468 
-0.226296 90.6621 0.558236 2.27567 8.65335 -33.989 4.28549 4.24075 3.47016 -52.7182 -5.21922 -28.4729 0.00280591 -1.43415e-05 -103.59 16.8628 16.1384 -2.14991 -6.52405 3.52672 24.958 54.7146 24.5617 55.5251 7.45317e-05 -9.76292e-06 108.658 -1.89999 1.00066 9.63368 -17.8649 -13.4665 -17.4494 -2.4963 44.2981 -7.15768 20.1234 -14.9467 0.147396 28.9871 -41.8413 24.9811 -3.72588 44.5299 -0.829048 -7.03555 -3.90303 -0.674472 
-0.614222 90.8229 0.725889 2.52035 9.04464 -32.8683 3.91815 4.11965 3.07193 -50.6737 4.25224 -24.7427 0.00276957 -1.32114e-05 -102.501 25.7447 16.3754 -3.79457 -6.46048 3.49654 23.8594 53.6151 26.3563 54.0328 7.41933e-05 -8.69653e-06 106.557 -3.46205 0.311397 8.92153 -17.9286 -13.4173 -18.0111 -1.22988 44.4812 -8.77876 17.9242 -15.4611 -1.49478 28.84 -42.675 24.9535 -4.04831 44.4303 0.34068 -6.52321 -2.29692 -1.08956 
-1.10065 90.9432 1.08398 2.33344 9.19319 -30.8032 3.64085 3.98871 2.74371 -50.0299 15.5193 -20.0394 0.00276481 -7.81405e-06 -97.3555 34.6747 14.7839 -4.85901 -6.06286 4.00096 22.0195 53.4391 28.1047 52.2276 7.38577e-05 -7.47521e-06 104.179 -5.78062 0.215549 6.67458 -17.4919 -12.2987 -18.2173 -0.0582027 44.1746 -10.0861 16.413 -15.9256 -3.98978 27.4176 -43.5792 23.6472 -3.87598 44.2845 1.24983 -6.64558 -1.39925 1.29544 
-1.74185 90.8717 1.86165 1.43069 8.89657 -27.2899 3.53685 3.77724 2.66588 -52.6037 26.6553 -14.5084 0.00278682 6.90281e-06 -83.5062 39.1012 11.5503 -4.28442 -5.0486 4.90863 18.8007 54.8401 29.5838 51.2214 7.36162e-05 -6.44478e-06 102.192 -10.5765 1.02846 2.61876 -15.6851 -9.1896 -17.4811 0.199115 42.6839 -10.249 16.3122 -17.2916 -7.50192 24.5297 -44.8672 20.3934 -2.7156 45.291 1.67782 -7.44495 -2.32051 8.06256 
-2.53712 90.5194 3.1861 -0.0729543 8.12047 -22.9245 3.42767 3.37689 2.96226 -57.659 33.485 -8.01585 0.00282543 3.01517e-05 -60.3958 35.559 8.95388 -1.43208 -3.19087 5.30957 13.997 56.6832 31.0446 53.5299 7.35301e-05 -6.03234e-06 101.401 -18.5479 2.62485 -1.00946 -12.2824 -4.05074 -16.2065 -0.911948 39.4929 -9.40063 17.2435 -19.7978 -11.1792 20.3312 -45.9348 15.1859 -0.419903 47.5724 1.70892 -8.29855 -5.72915 17.2256 
-3.31459 89.9093 5.02136 -1.81207 7.04929 -19.468 3.04502 2.76008 3.68568 -61.2873 31.4344 0.190705 0.00287433 5.01325e-05 -34.7777 25.8967 9.40305 3.38108 -0.590617 4.08293 8.49113 56.5445 32.7255 61.3445 7.3534e-05 -6.05152e-06 101.437 -27.1746 4.77919 -0.697325 -8.64241 1.10196 -15.5212 -2.74887 36.4861 -8.12696 18.0384 -21.3421 -15.1589 16.2674 -46.091 9.49625 2.60272 50.9145 1.52428 -9.08359 -9.90495 24.6881 
-3.81448 89.2401 7.27683 -3.80867 5.78518 -18.3008 2.43504 2.06263 4.7549 -59.6286 19.8785 12.0788 0.00294257 5.82448e-05 -17.392 17.0981 12.4801 8.7242 2.26069 1.41292 3.95684 53.545 33.7279 74.003 7.33664e-05 -5.1546e-06 99.7242 -31.9821 7.35655 4.31999 -7.24421 4.45157 -15.368 -3.86477 37.3559 -6.58023 18.6261 -15.3641 -19.6097 14.0937 -45.0589 5.17652 5.53737 55.11 1.15166 -9.88122 -13.7881 28.0019 
-3.94606 88.8759 9.92108 -6.53595 3.93224 -18.6595 1.88785 1.50194 5.86497 -50.6284 5.44093 28.0074 0.00303922 5.89737e-05 -14.9337 16.2273 14.977 12.3392 4.7281 -0.695013 1.48795 50.1887 32.5079 86.7135 7.29576e-05 -1.34421e-06 92.5245 -30.7282 9.78346 9.99381 -9.31453 2.45826 -15.6602 -2.61405 47.1471 -2.53284 20.0884 -0.866095 -23.8034 14.4553 -41.9069 2.94727 7.32635 58.6841 0.481961 -11.166 -17.6637 27.3042 
-3.80566 89.5203 13.0817 -10.5979 0.98874 -17.5794 1.94947 1.19542 6.44013 -36.431 -1.68356 41.961 0.00315944 5.53379e-05 -24.9528 24.3201 14.2892 12.0871 6.24973 -0.0550154 0.614898 49.6848 28.5262 93.0561 7.36044e-05 6.38971e-06 77.9141 -25.6901 11.1108 10.8691 -13.2432 -1.66553 -18.0604 2.3372 62.4111 -1.52986 23.7575 16.5969 -24.7222 16.5376 -35.878 2.43745 6.85018 59.5698 -0.00132094 -10.5844 -20.9722 26.337 
-3.58104 91.4444 16.2419 -15.3277 -3.14493 -12.0206 2.30136 1.10399 5.9807 -24.4892 2.16764 42.9032 0.00329006 4.74009e-05 -39.0482 35.4674 10.9752 7.51086 6.99643 3.73598 -0.444739 52.2025 21.6023 89.335 7.75635e-05 1.61692e-05 58.006 -21.9839 10.9226 5.66945 -17.126 -4.72922 -24.3457 19.5124 78.1871 -13.3555 27.4892 31.5215 -18.5986 20.2813 -28.5924 3.39597 4.44288 56.4561 -0.0645845 -8.11743 -21.4556 21.0936 
-3.44058 94.5641 18.8275 -19.443 -7.71916 -1.03181 2.18774 1.17929 4.77167 -15.8968 13.1019 25.1803 0.00342102 3.88627e-05 -50.4518 43.6566 8.70046 -0.372051 8.50359 8.75198 -3.70597 55.034 11.4679 75.9858 8.45956e-05 2.40001e-05 38.1465 -22.54 10.5309 -1.88944 -19.2779 -6.89608 -35.614 130.999 83.764 -122.709 24.3342 36.045 -2.14065 25.1759 -22.7024 5.69067 1.88801 48.6283 -0.417589 -4.71147 -18.1291 12.184 
-3.4712 98.0911 20.6529 -22.8829 -11.6401 14.2972 1.65984 1.4418 3.20962 -2.36561 22.4284 -8.74811 0.00354907 3.24792e-05 -57.8499 48.5488 11.2763 -10.1726 12.3073 11.7374 -9.69086 55.2255 0.229703 55.6529 9.11735e-05 2.79414e-05 23.7114 -24.4263 12.4399 -7.89839 -20.3169 -12.2731 -49.7102 170.026 73.4519 -162.58 18.2018 31.6296 13.9298 30.453 -21.3635 9.51152 0.338994 39.3463 -2.28456 -2.23725 -12.0943 3.31841 
-3.81937 100.723 22.2579 -26.8901 -14.8323 31.1357 1.4376 1.88511 1.49291 14.5603 18.8009 -48.4692 0.00367274 2.82416e-05 -62.4379 52.4662 18.4425 -20.5716 17.9666 10.7126 -16.457 53.212 -7.50099 31.1518 9.44962e-05 2.91759e-05 17.0528 -23.1324 17.2671 -11.7695 -25.2708 -27.0528 -61.5072 -178.782 61.4858 179.318 15.6388 26.1625 17.7177 35.7528 -26.5506 15.1861 -0.375455 34.2955 -5.01204 -1.88017 -6.34845 -1.25445 
-4.37524 101.953 24.6037 -32.5428 -18.2985 45.6427 2.26063 2.38705 -0.138811 21.5397 6.66835 -81.896 0.00378919 2.67928e-05 -63.9616 54.9725 25.873 -30.3717 24.1253 6.75901 -21.6109 53.9378 -10.2628 6.64009 9.46452e-05 2.92212e-05 16.7603 -18.2521 22.756 -15.0161 -42.4708 -48.5777 -72.1462 -174.601 49.8503 168.082 14.9841 28.5524 10.482 41.3913 -34.5252 22.353 -0.606637 30.836 -6.69296 -2.85952 -0.900901 -1.5431 
-4.70587 101.776 27.9551 -39.1925 -22.162 54.8482 3.73549 2.80509 -1.52458 18.4113 0.643886 -107.382 0.003895 2.89072e-05 -61.7307 53.8199 29.8919 -37.2419 30.1109 2.62005 -24.4081 60.9526 -12.1356 -13.6631 9.3207e-05 2.87488e-05 19.6027 -12.7545 25.9855 -18.3555 -78.6854 -60.3404 -87.8159 -172.523 46.4835 167.589 10.0907 35.496 4.0659 48.3627 -41.6504 30.4537 -0.668381 28.3761 -6.18748 -2.72199 1.78407 -1.46431 
-4.59604 100.746 32.1531 -45.3527 -25.2802 58.365 4.77064 3.13607 -2.76109 13.8821 5.76391 -123.269 0.00398793 3.20492e-05 -58.3254 49.923 30.3999 -38.9515 35.5012 0.51369 -25.4393 72.1803 -15.7241 -28.0045 9.13233e-05 2.80067e-05 23.4047 -8.70646 25.7957 -21.263 -102.382 -58.2684 -89.3811 -166.307 61.1643 163.954 1.18622 40.3178 7.75447 57.3869 -46.2205 39.2937 -0.761839 27.8777 -4.22194 -0.346984 0.214191 -3.17298 
-3.95931 99.8618 35.879 -50.2894 -27.5608 57.6314 5.32447 3.52862 -3.52311 13.3552 15.2079 -130.368 0.00406754 3.15286e-05 -58.898 47.3404 29.2222 -36.0235 39.67 0.981262 -25.9279 84.1129 -18.6749 -36.792 8.90008e-05 2.68825e-05 28.2505 -5.1334 22.9303 -23.5322 -96.2982 -55.6017 -72.3191 -59.7839 80.334 59.849 -0.464222 37.9045 16.0087 65.5507 -46.5684 46.4472 -0.797445 26.6805 -2.68602 2.77763 -2.88347 -4.84137 
